<?xml version="1.0" encoding="UTF-8"?>
<svg width="48px" height="48px" viewBox="0 0 48 48" version="1.1" xmlns="http://www.w3.org/2000/svg" xmlns:xlink="http://www.w3.org/1999/xlink">
    <!-- Generator: Sketch 56.3 (81716) - https://sketch.com -->
    <title>在线联系@1x</title>
    <desc>Created with Sketch.</desc>
    <g id="Page-1" stroke="none" stroke-width="1" fill="none" fill-rule="evenodd">
        <g id="1首页" transform="translate(-1364.000000, -648.000000)">
            <g id="Group-17" transform="translate(1360.000000, 644.000000)">
                <g id="在线联系" transform="translate(4.000000, 4.000000)">
                    <rect id="Rectangle" fill="#D8D8D8" opacity="0" x="0" y="0" width="48" height="48"></rect>
                    <g id="客服-(2)" transform="translate(12.000000, 10.000000)" fill="#FFFFFF" fill-rule="nonzero" stroke="#FFFFFF" stroke-width="0.3">
                        <path d="M12.6173153,0.000753255208 C12.8696571,0.0248575541 13.1235054,0.0474553162 13.3766005,0.0745726624 C15.0601346,0.254601583 16.642732,0.760038446 18.0995351,1.62402664 C20.9574002,3.31810638 22.8322621,5.77071804 23.7105622,8.97658879 C23.9772159,9.95205933 24.1015037,10.9493744 24.1045167,11.9602481 C24.1090363,12.980161 24.10527,13.9985673 24.1060232,15.0184801 C24.1060232,15.506592 23.9915279,15.9660801 23.7821218,16.4082432 C23.7000166,16.5837525 23.6623536,16.7795999 23.6073657,16.9679147 C22.3599686,21.2004776 18.8264301,24.440245 14.491424,25.3230647 C14.1931334,25.3840787 13.8910764,25.4307808 13.5890195,25.4699503 C13.4850698,25.4835089 13.4526796,25.5339773 13.4210428,25.6183423 C13.0723678,26.5399192 12.1661034,27.1287471 11.1823567,27.0728856 C10.2211981,27.024677 9.37830114,26.3369515 9.12972562,25.3961309 C8.83174143,24.2712626 9.43822205,23.1043012 10.5300343,22.701723 C11.6218327,22.2973044 12.8418221,22.7926188 13.3427038,23.8436638 C13.3961852,23.9551462 13.4534329,23.9822635 13.5679283,23.963432 C17.2106893,23.3525389 19.8674342,21.4008445 21.5517216,18.1181413 C21.5667868,18.0895175 21.5788389,18.0601404 21.6006834,18.0134383 C21.4816685,18.0262438 21.3792253,18.0398024 21.276782,18.0458285 C20.448364,18.0960776 19.6359448,17.8021354 19.0314649,17.233448 C18.426985,16.6647606 18.0840628,15.8717716 18.0837167,15.0418311 C18.0814569,14.0422563 18.0822101,13.0449412 18.0837167,12.0461197 C18.079068,11.216173 18.418511,10.4213975 19.0212887,9.85087828 C19.6240664,9.28035911 20.4362924,8.98509888 21.2647299,9.03534301 C21.5524748,9.05116145 21.8364535,9.14607211 22.1211855,9.20557956 C22.1483028,9.21085237 22.1746669,9.22215126 22.2055505,9.23194363 C21.2677429,5.47619372 17.5978645,1.63984508 12.3303236,1.51103778 C6.92493623,1.37921743 2.95601396,5.1929683 1.92329573,9.21763172 C2.13119525,9.16791662 2.33909474,9.10614937 2.55000731,9.06697989 C4.12281234,8.77622187 5.73177379,9.90385076 5.99164819,11.4811753 C6.02479158,11.6830488 6.0413633,11.8886885 6.04286981,12.0920685 C6.04814262,13.0697988 6.04738936,14.0475291 6.04437632,15.0252595 C6.03985676,16.4782963 5.06137319,17.6820043 3.64147977,17.989334 C2.00464774,18.3426126 0.348230941,17.21875 0.0740446167,15.5660995 C0.0447385031,15.3973867 0.0288702327,15.2266138 0.0265893005,15.0553898 C0.022822998,14.0023336 0.00323825684,12.9492774 0.0288490662,11.8969744 C0.126772746,8.04254749 1.69279844,4.90672982 4.71186095,2.51136588 C6.2545356,1.28731982 8.02017496,0.528034652 9.95981718,0.18680827 C10.4275911,0.105456285 10.9044041,0.0760791728 11.3774508,0.0218445068 C11.4226464,0.0165716939 11.4678419,0.00753257853 11.5122842,0.000753255208 L12.6173153,0.000753255208 Z M4.54011789,13.5496249 L4.54011789,12.0589251 C4.53785812,11.2009629 3.87348357,10.5275493 3.03209313,10.5290533 C2.19672877,10.5298091 1.53235424,11.2017162 1.53009447,12.0513925 C1.52858796,13.0411749 1.52858796,14.0309574 1.53084773,15.0214931 C1.53084773,15.1374951 1.54214661,15.25651 1.56700419,15.3687456 C1.73724074,16.1152254 2.4400315,16.622922 3.18123846,16.5400635 C3.9616149,16.4519322 4.53484508,15.8214543 4.53861135,15.0410779 C4.54237766,14.5439269 4.54011786,14.0467759 4.54011789,13.5496249 L4.54011789,13.5496249 Z M19.5902349,13.5375727 C19.5902349,14.0294509 19.5879751,14.5228356 19.5917414,15.0154671 C19.5924946,15.1352353 19.6030403,15.2587698 19.6301576,15.3755249 C19.8034072,16.1220047 20.512224,16.6281948 21.2489114,16.5393102 C22.0323009,16.4443996 22.5979985,15.817688 22.6002583,15.0342985 C22.6023925,14.0359796 22.6018903,13.0376567 22.5987517,12.0393403 C22.5986299,11.9224516 22.5852366,11.8059546 22.558829,11.6920879 C22.3833196,10.9523874 21.6835419,10.4514701 20.9476078,10.5350819 C20.1664781,10.6232132 19.5940012,11.2529378 19.5894816,12.0333143 C19.5879751,12.5349848 19.5902349,13.0359021 19.5902349,13.5375727 L19.5902349,13.5375727 Z" id="Shape"></path>
                    </g>
                </g>
            </g>
        </g>
    </g>
</svg>