<?xml version="1.0" encoding="UTF-8"?>
<svg width="20px" height="21px" viewBox="0 0 20 21" version="1.1" xmlns="http://www.w3.org/2000/svg" xmlns:xlink="http://www.w3.org/1999/xlink">
    <!-- Generator: Sketch 56.3 (81716) - https://sketch.com -->
    <title>个人方案@3x</title>
    <desc>Created with Sketch.</desc>
    <g id="Page-1" stroke="none" stroke-width="1" fill="none" fill-rule="evenodd">
        <g id="菜单2" transform="translate(-16.000000, -286.000000)">
            <g id="Group-13" transform="translate(16.000000, 286.000000)">
                <g id="Group-8">
                    <g id="个人方案" transform="translate(0.000000, 0.620000)">
                        <rect id="Rectangle-Copy-47" stroke="#979797" stroke-width="0.5" fill="#D8D8D8" opacity="0" x="0.25" y="0.25" width="19.34" height="19.34"></rect>
                        <g id="Group-22" transform="translate(2.322667, 2.480000)" fill="#FFFFFF" fill-rule="nonzero">
                            <path d="M3.4527639,-8.36664071e-13 L11.7419028,-8.36664071e-13 C11.9248821,-8.36664071e-13 12.0929994,0.100742367 12.1792881,0.262098191 L14.8774347,5.3075051 C15.3080535,6.11270953 15.0043751,7.1145371 14.1991635,7.54514242 C13.9793294,7.66270373 13.7357563,7.72903065 13.4866678,7.7391608 C13.2853103,7.74734978 13.0833905,7.75785174 12.8809086,7.77066667 C11.759066,7.84166725 10.7908768,7.44667061 9.97634118,6.58567675 C9.32102762,7.37567003 8.46306069,7.77066667 7.40244039,7.77066667 C6.34182009,7.77066667 5.48385316,7.37567003 4.8285396,6.58567675 C4.0347019,7.49538779 3.06651275,7.89038443 1.92397214,7.77066667 C1.82307623,7.76009458 1.72348953,7.7504561 1.62521204,7.74175123 C0.715655343,7.6611985 0.0436242718,6.85854833 0.124187686,5.94899258 C0.143836768,5.72715571 0.208100875,5.51157502 0.313123434,5.31518779 L3.01537855,0.262098191 C3.10166726,0.100742367 3.26978454,-8.36664071e-13 3.4527639,-8.36664071e-13 Z M3.89859743,1.24 L1.40658681,5.89994231 C1.38033066,5.94904007 1.36426432,6.00293629 1.35935195,6.05839659 C1.33921088,6.28578795 1.50721727,6.48644793 1.73461606,6.50658696 C1.83955132,6.51588155 1.94574298,6.52615929 2.05319446,6.53741828 C2.78825159,6.61443908 3.36194545,6.38038652 3.89424624,5.77038788 L4.85245954,4.67230798 L5.78292241,5.79399913 C6.20038657,6.29726032 6.70736538,6.53066667 7.40244039,6.53066667 C8.0975154,6.53066667 8.60449421,6.29726032 9.02195837,5.79399913 L9.91540281,4.71693442 L10.8771192,5.73350364 C11.442435,6.33106305 12.0539026,6.58052632 12.8025867,6.53314266 C13.0143586,6.51973977 13.2255902,6.5087535 13.4362801,6.50018498 C13.498554,6.49765238 13.5594489,6.48107018 13.6144089,6.45167904 C13.8157149,6.34402608 13.8916325,6.09357283 13.7839714,5.89225962 L11.2960692,1.24 L3.89859743,1.24 Z M12.4333333,14.26 L12.4333333,9.424 C12.4333333,9.08158346 12.7109168,8.804 13.0533333,8.804 C13.3957499,8.804 13.6733333,9.08158346 13.6733333,9.424 L13.6733333,14.88 C13.6733333,15.2224165 13.3957499,15.5 13.0533333,15.5 L2.14133333,15.5 C1.79891679,15.5 1.52133333,15.2224165 1.52133333,14.88 L1.52133333,9.424 C1.52133333,9.08158346 1.79891679,8.804 2.14133333,8.804 C2.48374988,8.804 2.76133333,9.08158346 2.76133333,9.424 L2.76133333,14.26 L12.4333333,14.26 Z" id="Combined-Shape"></path>
                        </g>
                    </g>
                </g>
            </g>
        </g>
    </g>
</svg>