<?xml version="1.0" encoding="UTF-8"?>
<svg width="20px" height="21px" viewBox="0 0 20 21" version="1.1" xmlns="http://www.w3.org/2000/svg" xmlns:xlink="http://www.w3.org/1999/xlink">
    <!-- Generator: Sketch 56.3 (81716) - https://sketch.com -->
    <title>企业方案@3x</title>
    <desc>Created with Sketch.</desc>
    <g id="Page-1" stroke="none" stroke-width="1" fill="none" fill-rule="evenodd">
        <g id="菜单2" transform="translate(-145.000000, -286.000000)">
            <g id="Group-16" transform="translate(145.000000, 286.000000)">
                <g id="Group-8">
                    <g id="企业方案" transform="translate(0.000000, 0.620000)">
                        <rect id="Rectangle-Copy-49" stroke="#979797" stroke-width="0.5" fill="#D8D8D8" opacity="0" x="0.25" y="0.25" width="19.34" height="19.34"></rect>
                        <g id="Group-23" transform="translate(0.702667, 1.694667)" fill="#FFFFFF" fill-rule="nonzero">
                            <path d="M8.72133333,13.9706667 L10.2862708,13.9706667 L10.2862708,2.14933333 L10.292,2.14933333 L10.292,1.24 L2.852,1.24 L2.852,13.9706667 L4.42266667,13.9706667 L4.42266667,9.58933333 L8.72133333,9.58933333 L8.72133333,13.9706667 Z M1.612,13.9706667 L1.612,-3.6504133e-13 L11.532,-3.6504133e-13 L11.532,2.14933333 L16.4036041,2.14933333 L16.4036041,13.9706667 L17.1381372,13.9706667 C17.4805538,13.9706667 17.7581372,14.2482501 17.7581372,14.5906667 C17.7581372,14.9330832 17.4805538,15.2106667 17.1381372,15.2106667 L1.18347056,15.2106667 C0.841054012,15.2106667 0.563470557,14.9330832 0.563470557,14.5906667 C0.563470557,14.2482501 0.841054012,13.9706667 1.18347056,13.9706667 L1.612,13.9706667 Z M11.532,13.9706667 L15.1636041,13.9706667 L15.1636041,3.38933333 L11.532,3.38933333 L11.532,13.9706667 Z M5.66266667,10.8293333 L5.66266667,13.9706667 L7.48133333,13.9706667 L7.48133333,10.8293333 L5.66266667,10.8293333 Z M5.18733333,2.14933333 L7.58466667,2.14933333 C7.92708321,2.14933333 8.20466667,2.42691679 8.20466667,2.76933333 C8.20466667,3.11174988 7.92708321,3.38933333 7.58466667,3.38933333 L5.18733333,3.38933333 C4.84491679,3.38933333 4.56733333,3.11174988 4.56733333,2.76933333 C4.56733333,2.42691679 4.84491679,2.14933333 5.18733333,2.14933333 Z M13.0613333,4.96 L13.9706667,4.96 C14.3130832,4.96 14.5906667,5.23758346 14.5906667,5.58 C14.5906667,5.92241654 14.3130832,6.2 13.9706667,6.2 L13.0613333,6.2 C12.7189168,6.2 12.4413333,5.92241654 12.4413333,5.58 C12.4413333,5.23758346 12.7189168,4.96 13.0613333,4.96 Z M5.18733333,5.952 L7.58466667,5.952 C7.92708321,5.952 8.20466667,6.22958346 8.20466667,6.572 C8.20466667,6.91441654 7.92708321,7.192 7.58466667,7.192 L5.18733333,7.192 C4.84491679,7.192 4.56733333,6.91441654 4.56733333,6.572 C4.56733333,6.22958346 4.84491679,5.952 5.18733333,5.952 Z M13.0613333,8.76266667 L13.9706667,8.76266667 C14.3130832,8.76266667 14.5906667,9.04025012 14.5906667,9.38266667 C14.5906667,9.72508321 14.3130832,10.0026667 13.9706667,10.0026667 L13.0613333,10.0026667 C12.7189168,10.0026667 12.4413333,9.72508321 12.4413333,9.38266667 C12.4413333,9.04025012 12.7189168,8.76266667 13.0613333,8.76266667 Z" id="Combined-Shape"></path>
                        </g>
                    </g>
                </g>
            </g>
        </g>
    </g>
</svg>