<?xml version="1.0" encoding="UTF-8"?>
<svg width="20px" height="21px" viewBox="0 0 20 21" version="1.1" xmlns="http://www.w3.org/2000/svg" xmlns:xlink="http://www.w3.org/1999/xlink">
    <!-- Generator: Sketch 56.3 (81716) - https://sketch.com -->
    <title>政府方案@3x</title>
    <desc>Created with Sketch.</desc>
    <g id="Page-1" stroke="none" stroke-width="1" fill="none" fill-rule="evenodd">
        <g id="菜单2" transform="translate(-274.000000, -286.000000)">
            <g id="Group-17" transform="translate(274.000000, 286.000000)">
                <g id="Group-8">
                    <g id="政府方案">
                        <rect id="Rectangle-Copy-43" stroke="#979797" stroke-width="0.5" fill="#D8D8D8" opacity="0" x="0.25" y="1.25" width="19.34" height="19.34"></rect>
                        <g id="Group-24" transform="translate(1.810667, 0.909333)" fill="#FFFFFF" fill-rule="nonzero">
                            <path d="M12.7386667,13.9373333 L12.7386667,8.23333333 L11.3643333,8.23333333 L11.3643333,13.9373333 L12.7386667,13.9373333 Z M13.9786667,13.9373333 L15.2186667,13.9373333 C15.5610832,13.9373333 15.8386667,14.2149168 15.8386667,14.5573333 L15.8386667,16.7066667 C15.8386667,17.0490832 15.5610832,17.3266667 15.2186667,17.3266667 L1,17.3266667 C0.657583455,17.3266667 0.38,17.0490832 0.38,16.7066667 L0.38,14.5573333 C0.38,14.2149168 0.657583455,13.9373333 1,13.9373333 L2.28133333,13.9373333 L2.28133333,8.23333333 L1,8.23333333 C0.657583455,8.23333333 0.38,7.95574988 0.38,7.61333333 L0.38,5.47579417 C0.38,5.26274665 0.489386718,5.06462107 0.669679701,4.95111474 L7.77901303,0.475320574 C7.98083164,0.348262455 8.23763842,0.348223721 8.43949534,0.475220954 L15.5488287,4.94802109 C15.7292122,5.06150842 15.8386667,5.25968613 15.8386667,5.47280013 L15.8386667,7.61333333 C15.8386667,7.95574988 15.5610832,8.23333333 15.2186667,8.23333333 L13.9786667,8.23333333 L13.9786667,13.9373333 Z M3.52133333,13.9373333 L4.89566667,13.9373333 L4.89566667,8.23333333 L3.52133333,8.23333333 L3.52133333,13.9373333 Z M6.13566667,13.9373333 L7.51,13.9373333 L7.51,8.23333333 L6.13566667,8.23333333 L6.13566667,13.9373333 Z M8.75,13.9373333 L10.1243333,13.9373333 L10.1243333,8.23333333 L8.75,8.23333333 L8.75,13.9373333 Z M8.10944383,1.73256828 L1.62,5.81810112 L1.62,6.99333333 L14.5986667,6.99333333 L14.5986667,5.81522912 L8.10944383,1.73256828 Z M1.62,15.1773333 L1.62,16.0866667 L14.5986667,16.0866667 L14.5986667,15.1773333 L1.62,15.1773333 Z" id="Combined-Shape"></path>
                        </g>
                    </g>
                </g>
            </g>
        </g>
    </g>
</svg>