<?xml version="1.0" encoding="UTF-8"?>
<svg width="20px" height="21px" viewBox="0 0 20 21" version="1.1" xmlns="http://www.w3.org/2000/svg" xmlns:xlink="http://www.w3.org/1999/xlink">
    <!-- Generator: Sketch 56.3 (81716) - https://sketch.com -->
    <title>智慧酒店@3x</title>
    <desc>Created with Sketch.</desc>
    <g id="Page-1" stroke="none" stroke-width="1" fill="none" fill-rule="evenodd">
        <g id="菜单3" transform="translate(-214.000000, -347.000000)">
            <g id="Group-18" transform="translate(214.000000, 347.000000)">
                <g id="Group-8">
                    <g id="智慧酒店" transform="translate(0.000000, 0.620000)">
                        <rect id="Rectangle-Copy-38" stroke="#979797" stroke-width="0.5" fill="#D8D8D8" opacity="0" x="0.25" y="0.25" width="19.34" height="19.34"></rect>
                        <g id="Group-17" transform="translate(2.314667, 0.033333)" fill="#FFFFFF" fill-rule="nonzero">
                            <path d="M0.702666667,16.6574681 L0.702666667,8.10933333 C0.702666667,3.84054041 4.16320707,0.38 8.432,0.38 L9.052,0.38 L9.052,3.08730489 L14.6733333,8.20894655 L14.6733333,16.6574681 L14.756,16.6574681 C15.0984165,16.6574681 15.376,16.9350515 15.376,17.2774681 C15.376,17.6198846 15.0984165,17.8974681 14.756,17.8974681 L14.6733333,17.8974681 L14.6733333,17.9053333 L9.052,17.9053333 L0.702666667,17.9053333 L0.702666667,17.8974681 L0.62,17.8974681 C0.277583455,17.8974681 1.02293475e-13,17.6198846 1.02140518e-13,17.2774681 C1.02098584e-13,16.9350515 0.277583455,16.6574681 0.62,16.6574681 L0.702666667,16.6574681 Z M9.052,16.6574681 L13.4333333,16.6574681 L13.4333333,8.75666753 L9.052,4.76479977 L9.052,16.6574681 Z M1.94266667,16.6574681 L7.812,16.6574681 L7.812,1.957531 L7.812,1.64923372 C4.51887433,1.96136828 1.94266667,4.73449804 1.94266667,8.10933333 L1.94266667,16.6574681 Z M3.92666667,5.96 L5.99333333,5.96 C6.33574988,5.96 6.61333333,6.23758346 6.61333333,6.58 C6.61333333,6.92241654 6.33574988,7.2 5.99333333,7.2 L3.92666667,7.2 C3.58425012,7.2 3.30666667,6.92241654 3.30666667,6.58 C3.30666667,6.23758346 3.58425012,5.96 3.92666667,5.96 Z M3.92666667,9.76266667 L5.99333333,9.76266667 C6.33574988,9.76266667 6.61333333,10.0402501 6.61333333,10.3826667 C6.61333333,10.7250832 6.33574988,11.0026667 5.99333333,11.0026667 L3.92666667,11.0026667 C3.58425012,11.0026667 3.30666667,10.7250832 3.30666667,10.3826667 C3.30666667,10.0402501 3.58425012,9.76266667 3.92666667,9.76266667 Z M10.3746667,9.76266667 L11.4493333,9.76266667 C11.7917499,9.76266667 12.0693333,10.0402501 12.0693333,10.3826667 C12.0693333,10.7250832 11.7917499,11.0026667 11.4493333,11.0026667 L10.3746667,11.0026667 C10.0322501,11.0026667 9.75466667,10.7250832 9.75466667,10.3826667 C9.75466667,10.0402501 10.0322501,9.76266667 10.3746667,9.76266667 Z M10.3746667,13.5653333 L11.4493333,13.5653333 C11.7917499,13.5653333 12.0693333,13.8429168 12.0693333,14.1853333 C12.0693333,14.5277499 11.7917499,14.8053333 11.4493333,14.8053333 L10.3746667,14.8053333 C10.0322501,14.8053333 9.75466667,14.5277499 9.75466667,14.1853333 C9.75466667,13.8429168 10.0322501,13.5653333 10.3746667,13.5653333 Z M3.92666667,13.5653333 L5.99333333,13.5653333 C6.33574988,13.5653333 6.61333333,13.8429168 6.61333333,14.1853333 C6.61333333,14.5277499 6.33574988,14.8053333 5.99333333,14.8053333 L3.92666667,14.8053333 C3.58425012,14.8053333 3.30666667,14.5277499 3.30666667,14.1853333 C3.30666667,13.8429168 3.58425012,13.5653333 3.92666667,13.5653333 Z" id="Combined-Shape"></path>
                        </g>
                    </g>
                </g>
            </g>
        </g>
    </g>
</svg>