<?xml version="1.0" encoding="UTF-8"?>
<svg width="20px" height="20px" viewBox="0 0 20 20" version="1.1" xmlns="http://www.w3.org/2000/svg" xmlns:xlink="http://www.w3.org/1999/xlink">
    <!-- Generator: Sketch 56.3 (81716) - https://sketch.com -->
    <title>网约房@3x</title>
    <desc>Created with Sketch.</desc>
    <defs>
        <rect id="path-1" x="0" y="0" width="20" height="20"></rect>
    </defs>
    <g id="Page-1" stroke="none" stroke-width="1" fill="none" fill-rule="evenodd">
        <g id="菜单3" transform="translate(-17.000000, -393.000000)">
            <g id="Group-13" transform="translate(17.000000, 392.000000)">
                <g id="Group-8">
                    <g id="网约房" transform="translate(0.000000, 1.000000)">
                        <mask id="mask-2" fill="white">
                            <use xlink:href="#path-1"></use>
                        </mask>
                        <rect stroke="#979797" stroke-width="0.5" x="0.25" y="0.25" width="19.5" height="19.5"></rect>
                        <g id="Group-10" mask="url(#mask-2)">
                            <g transform="translate(-0.834667, -0.297333)">
                                <g id="Group-2" stroke-width="1" fill="none" fill-rule="evenodd" transform="translate(15.218667, 1.496000)"></g>
                                <path d="M6.62133333,17.244 L6.62133333,13.896 C6.62133333,12.8002671 7.50960039,11.912 8.60533333,11.912 C9.70106628,11.912 10.5893333,12.8002671 10.5893333,13.896 L10.5893333,17.244 L13.772,17.244 L13.772,10.2586667 C13.772,9.91625012 14.0495835,9.63866667 14.392,9.63866667 C14.7344165,9.63866667 15.012,9.91625012 15.012,10.2586667 L15.012,18.484 L2.19866667,18.484 L2.19866667,10.2586667 C2.19866667,9.91625012 2.47625012,9.63866667 2.81866667,9.63866667 C3.16108321,9.63866667 3.43866667,9.91625012 3.43866667,10.2586667 L3.43866667,17.244 L6.62133333,17.244 Z M1.423388,9.3889267 C1.17324349,9.62275744 0.780904036,9.60953251 0.547073298,9.359388 C0.31324256,9.10924349 0.326467485,8.71690404 0.576611996,8.4830733 L7.27871759,2.21806155 C8.02541003,1.52006644 9.18525664,1.52006644 9.93194908,2.21806155 L16.6340547,8.4830733 C16.8841992,8.71690404 16.8974241,9.10924349 16.6635934,9.359388 C16.4297626,9.60953251 16.0374232,9.62275744 15.7872787,9.3889267 L9.08517307,3.12391495 C8.81509283,2.87144864 8.39557384,2.87144864 8.1254936,3.12391495 L1.423388,9.3889267 Z M6.91066667,6.952 L10.3,6.952 C10.6424165,6.952 10.92,7.22958346 10.92,7.572 C10.92,7.91441654 10.6424165,8.192 10.3,8.192 L6.91066667,8.192 C6.56825012,8.192 6.29066667,7.91441654 6.29066667,7.572 C6.29066667,7.22958346 6.56825012,6.952 6.91066667,6.952 Z M9.34933333,13.896 C9.34933333,13.4851001 9.01623319,13.152 8.60533333,13.152 C8.19443348,13.152 7.86133333,13.4851001 7.86133333,13.896 L7.86133333,16.9546667 L9.34933333,16.9546667 L9.34933333,13.896 Z M14.9907964,4.77065892 C14.7211125,4.72259659 14.5414527,4.46501234 14.589515,4.19532839 C14.6375773,3.92564445 14.8951616,3.74598463 15.1648455,3.79404696 C15.7250059,3.89387721 16.1780784,4.12473891 16.5055748,4.49078796 C16.8193039,4.84144911 17.0209822,5.28621824 17.1135336,5.81442889 C17.1608111,6.08425153 16.9804026,6.34131198 16.7105799,6.38858947 C16.4407573,6.43586695 16.1836969,6.25545846 16.1364194,5.98563583 C16.074443,5.6319237 15.9500866,5.35767547 15.7662741,5.15222467 C15.5962288,4.96216177 15.343899,4.83358789 14.9907964,4.77065892 Z M14.907326,3.21195074 C14.6336008,3.22262421 14.4030501,3.00937863 14.3923767,2.73565341 C14.3817032,2.46192819 14.5949488,2.23137751 14.868674,2.22070404 C15.9842919,2.17720234 16.8996297,2.50847525 17.576412,3.21687337 C18.24672,3.91849464 18.5557071,4.79669238 18.4976075,5.81775189 C18.4820455,6.09124273 18.2477219,6.30033539 17.974231,6.2847734 C17.7007402,6.26921142 17.4916475,6.0348878 17.5072095,5.76139696 C17.549984,5.00966518 17.3358824,4.40114933 16.8591388,3.90213473 C16.3888696,3.40989699 15.7510238,3.17905212 14.907326,3.21195074 Z M14.8790766,1.49591972 C14.6051877,1.49099147 14.387152,1.26496551 14.3920803,0.991076612 C14.3970085,0.717187711 14.6230345,0.499152025 14.8969234,0.504080275 C16.5578689,0.533966687 17.8802562,1.01613878 18.8371047,1.95978909 C19.7987737,2.9081935 20.2605031,4.17744734 20.224886,5.73347171 C20.2186174,6.00733321 19.9915271,6.22426008 19.7176656,6.21799145 C19.4438041,6.21172281 19.2268772,5.98463246 19.2331458,5.71077096 C19.2627749,4.41634898 18.8977095,3.41281605 18.1405428,2.66609326 C17.3785556,1.91461637 16.3003937,1.52149435 14.8790766,1.49591972 Z" id="Combined-Shape" fill="#FFFFFF" fill-rule="nonzero"></path>
                                <g id="Group-3" stroke-width="1" fill="none" fill-rule="evenodd" transform="translate(14.888000, 1.000000)"></g>
                            </g>
                        </g>
                    </g>
                </g>
            </g>
        </g>
    </g>
</svg>