<?xml version="1.0" encoding="UTF-8"?>
<svg width="20px" height="21px" viewBox="0 0 20 21" version="1.1" xmlns="http://www.w3.org/2000/svg" xmlns:xlink="http://www.w3.org/1999/xlink">
    <!-- Generator: Sketch 56.3 (81716) - https://sketch.com -->
    <title>跨境电商@3x</title>
    <desc>Created with Sketch.</desc>
    <g id="Page-1" stroke="none" stroke-width="1" fill="none" fill-rule="evenodd">
        <g id="菜单3" transform="translate(-214.000000, -392.000000)">
            <g id="Group-16" transform="translate(214.000000, 392.000000)">
                <g id="Group-8">
                    <g id="跨境电商" transform="translate(0.000000, 0.620000)">
                        <rect id="Rectangle-Copy-36" stroke="#979797" stroke-width="0.5" fill="#D8D8D8" opacity="0" x="0.25" y="0.25" width="19.34" height="19.34"></rect>
                        <g id="Group-12" transform="translate(0.653333, 0.818667)" fill="#FFFFFF" fill-rule="nonzero">
                            <path d="M12.6735835,11.7466667 L17.6986667,11.7466667 L17.0188027,15.5493333 L12.095864,15.5493333 L11.9964494,14.9932802 C11.9861088,14.9631306 11.9779652,14.931794 11.9722368,14.8994233 L11.2437798,10.7829722 L10.2428378,10.7829722 C9.90042121,10.7829722 9.62283776,10.5053888 9.62283776,10.1629722 C9.62283776,9.82055569 9.90042121,9.54297223 10.2428378,9.54297223 L12.2836125,9.54297223 L12.6735835,11.7466667 Z M16.6089257,10.5098129 C16.5299195,10.8429902 16.1957788,11.0490367 15.8626015,10.9700305 C15.5294242,10.8910244 15.3233777,10.5568837 15.4023839,10.2237064 C15.5270621,9.69792482 15.5906667,9.15602438 15.5906667,8.60533333 C15.5906667,4.74744026 12.4632264,1.62 8.60533333,1.62 C4.74744026,1.62 1.62,4.74744026 1.62,8.60533333 C1.62,12.4632264 4.74744026,15.5906667 8.60533333,15.5906667 C8.96583226,15.5906667 9.3226758,15.5634109 9.67387978,15.5095406 C10.0123379,15.4576254 10.328798,15.6899143 10.3807132,16.0283724 C10.4326284,16.3668306 10.2003395,16.6832907 9.86188139,16.7352059 C9.44851869,16.7986105 9.02882712,16.8306667 8.60533333,16.8306667 C4.06260717,16.8306667 0.38,13.1480595 0.38,8.60533333 C0.38,4.06260717 4.06260717,0.38 8.60533333,0.38 C13.1480595,0.38 16.8306667,4.06260717 16.8306667,8.60533333 C16.8306667,9.25254628 16.7557931,9.89045722 16.6089257,10.5098129 Z M13.1338313,14.3093333 L15.9808354,14.3093333 L16.2173098,12.9866667 L12.8973569,12.9866667 L13.1338313,14.3093333 Z M13.2346667,17.368 C12.7781113,17.368 12.408,16.9978887 12.408,16.5413333 C12.408,16.0847779 12.7781113,15.7146667 13.2346667,15.7146667 C13.6912221,15.7146667 14.0613333,16.0847779 14.0613333,16.5413333 C14.0613333,16.9978887 13.6912221,17.368 13.2346667,17.368 Z M15.88,17.368 C15.4234446,17.368 15.0533333,16.9978887 15.0533333,16.5413333 C15.0533333,16.0847779 15.4234446,15.7146667 15.88,15.7146667 C16.3365554,15.7146667 16.7066667,16.0847779 16.7066667,16.5413333 C16.7066667,16.9978887 16.3365554,17.368 15.88,17.368 Z M3.45484013,6.54343209 C3.55199894,6.39869635 3.86189405,5.92812041 3.92516589,5.83412966 C4.09052185,5.58849224 4.21412265,5.41960036 4.34196474,5.27140634 C4.74806432,4.80065737 5.18927775,4.57320333 5.86707564,4.48965082 C7.22282594,4.32252677 7.82377541,5.81895898 8.39450618,8.63414496 C8.42424208,8.78082021 8.45962314,8.94395277 8.50928913,9.16543541 L8.64450624,9.7655486 C8.70152766,10.0209925 8.74693689,10.2317908 8.78816754,10.435201 C9.10804027,12.0132838 9.14657609,12.9577846 8.69182324,13.5704862 C7.79910973,14.7732647 6.28414747,14.0207902 5.40591715,12.4987852 C5.17217845,12.0937076 4.79778684,11.6724375 4.27540289,11.1994463 C4.0421953,10.9882891 3.07756346,10.1849465 2.90120186,10.0123 C2.07937381,9.20778415 2.37361657,8.15411157 3.45484013,6.54343209 Z M4.95380991,6.5265829 C4.89507582,6.61383278 4.58577296,7.08350938 4.48438315,7.23454798 C3.72329977,8.36832033 3.56682542,8.92864926 3.7686316,9.12620429 C3.90187158,9.25663751 4.84033698,10.0381888 5.10768179,10.2802555 C5.71738742,10.8323118 6.16948493,11.3410176 6.4799413,11.8790497 C6.74644929,12.3409177 7.08682452,12.6934446 7.38137618,12.839747 C7.56763657,12.9322616 7.62798683,12.9232474 7.69611221,12.8314601 C7.84374662,12.632548 7.81234581,11.862924 7.57288191,10.6815358 C7.53349584,10.4872258 7.48969036,10.2838725 7.43429177,10.0356984 C7.40696144,9.91326428 7.31399838,9.50213935 7.29933727,9.43675899 C7.24796862,9.20768345 7.21098773,9.0371745 7.17922903,8.8805216 C6.80355796,7.02748686 6.26636515,5.68981596 6.0187828,5.72033557 C5.64026485,5.76699568 5.48145067,5.84886745 5.28087536,6.08137352 C5.19216826,6.18420242 5.09389108,6.31849135 4.95380991,6.5265829 Z M10.3035033,2.90982393 C10.9718231,2.90982393 12.1083872,3.25292863 13.7483392,5.24076754 C15.3882913,7.22860645 15.0225887,8.32562638 14.3279461,8.88837462 C13.6333034,9.45112285 11.8149469,9.42728758 11.8149469,7.6904204 C11.8149469,5.95355321 9.66783446,6.56027357 9.22851589,4.97269073 C8.78919733,3.38510789 9.63518344,2.90982393 10.3035033,2.90982393 Z M10.3035033,4.14982393 C10.213158,4.14982393 10.2675312,4.07798147 10.423603,4.64198424 C10.4635975,4.78651404 10.5469714,4.85592273 10.9883173,5.05298719 C11.0564814,5.08328126 11.0564814,5.08328126 11.1298011,5.11567823 C12.4149386,5.68450308 13.0549469,6.30744208 13.0549469,7.6904204 C13.0549469,7.99685504 13.3543049,8.08129798 13.5473897,7.9248749 C13.6507233,7.84116162 13.6805781,7.78135284 13.6748739,7.65482688 C13.65952,7.31426076 13.4001406,6.76722766 12.7918328,6.02987809 C11.6226553,4.61268017 10.8296518,4.14982393 10.3035033,4.14982393 Z" id="Combined-Shape"></path>
                        </g>
                    </g>
                </g>
            </g>
        </g>
    </g>
</svg>