<?xml version="1.0" encoding="UTF-8"?>
<svg width="40px" height="40px" viewBox="0 0 40 40" version="1.1" xmlns="http://www.w3.org/2000/svg" xmlns:xlink="http://www.w3.org/1999/xlink">
    <!-- Generator: Sketch 56.3 (81716) - https://sketch.com -->
    <title>wb_icon@1x</title>
    <desc>Created with Sketch.</desc>
    <g id="Page-1" stroke="none" stroke-width="1" fill="none" fill-rule="evenodd" opacity="0.9">
        <g id="1首页" transform="translate(-238.000000, -3095.000000)" fill="#FFFFFF">
            <g id="footbar" transform="translate(0.000000, 2953.000000)">
                <path d="M258,182 C246.954305,182 238,173.045695 238,162 C238,150.954305 246.954305,142 258,142 C269.045695,142 278,150.954305 278,162 C278,173.045695 269.045695,182 258,182 Z M268.212886,154.098924 C265.931846,151.908329 262.583343,152.214628 262.583343,152.214628 C262.171622,152.222943 261.837795,152.563858 261.837795,152.979203 L261.837795,153.349326 C261.837795,153.763312 262.170077,154.079577 262.593923,154.072329 C262.593923,154.072329 265.807344,153.731253 267.176123,155.72646 C268.544688,157.721668 267.953382,160.225277 267.953382,160.225277 C267.890572,160.63396 268.174193,160.965335 268.592496,160.965335 L268.911772,160.965335 C269.327571,160.965335 269.71203,160.635026 269.756826,160.222532 C269.75688,160.222532 270.4939,156.289439 268.212886,154.098924 Z M265.560178,160.080575 L266.012591,160.080575 C266.288751,160.080575 266.556436,159.864162 266.601046,159.586057 C266.601046,159.586057 267.134258,157.510957 265.890194,156.373595 C264.645998,155.23618 263.020114,155.651072 263.020114,155.651072 C262.747419,155.692697 262.526102,155.951295 262.526102,156.226202 L262.526102,156.421376 C262.526102,156.697535 262.747019,156.904648 263.032265,156.896361 C263.032265,156.896361 264.39694,156.7107 265.060703,157.510984 C265.72436,158.311455 265.204766,159.60591 265.204766,159.60591 C265.125007,159.868132 265.287696,160.080575 265.560178,160.080575 Z M254.931651,162.127054 C252.691756,162.562412 251.174732,164.452091 251.543175,166.347899 C251.911752,168.243547 254.026185,169.427411 256.265946,168.992053 C258.505788,168.556562 260.023159,166.66683 259.654582,164.771048 C259.286112,162.875427 257.171679,161.691563 254.931651,162.127054 Z M254.747936,167.112661 C254.05859,167.434043 253.301263,167.269115 253.056442,166.744084 C252.811595,166.21884 253.171911,165.532665 253.861257,165.211283 C254.550629,164.889714 255.308009,165.054829 255.552936,165.57986 C255.797437,166.105077 255.437468,166.791279 254.747936,167.112661 Z M256.328704,165.517369 C255.948641,165.517369 255.64037,165.204248 255.64037,164.81803 C255.64037,164.431838 255.948588,164.118611 256.328704,164.118611 C256.709299,164.118611 257.017597,164.431865 257.017597,164.81803 C257.01757,165.204301 256.709246,165.517369 256.328704,165.517369 Z M263.277219,161.344491 C263.277219,161.133888 265.280528,159.238266 263.277219,158.058639 C261.273858,156.879146 257.609116,158.672463 257.718935,158.479874 C259.295119,155.726461 257.042753,154.857183 255.894412,154.857183 C253.156561,154.857183 246,160.955662 246,164.81803 C246,168.680424 250.778547,171.811661 256.67303,171.811661 C262.567647,171.811661 267.300545,168.680398 267.300545,164.81803 C267.300545,161.555095 263.277219,161.555095 263.277219,161.344491 Z M256.961342,169.669221 C253.195681,170.198488 249.85941,168.612124 249.509994,166.126103 C249.160577,163.639895 251.930193,161.195446 255.696039,160.666178 C259.462339,160.13691 262.798157,161.723221 263.147707,164.209429 C263.49723,166.695477 260.727615,169.1399 256.961342,169.669221 Z" id="wb_icon"></path>
            </g>
        </g>
    </g>
</svg>