<?xml version="1.0" encoding="UTF-8"?>
<svg width="40px" height="40px" viewBox="0 0 40 40" version="1.1" xmlns="http://www.w3.org/2000/svg" xmlns:xlink="http://www.w3.org/1999/xlink">
    <!-- Generator: Sketch 56.3 (81716) - https://sketch.com -->
    <title>wx_icon@1x</title>
    <desc>Created with Sketch.</desc>
    <g id="Page-1" stroke="none" stroke-width="1" fill="none" fill-rule="evenodd" opacity="0.9">
        <g id="1首页" transform="translate(-156.000000, -3095.000000)" fill="#FFFFFF">
            <g id="footbar" transform="translate(0.000000, 2953.000000)">
                <path d="M176,182 C164.954305,182 156,173.045695 156,162 C156,150.954305 164.954305,142 176,142 C187.045695,142 196,150.954305 196,162 C196,173.045695 187.045695,182 176,182 Z M180.241489,158.706915 C180.496809,158.706915 180.745745,158.718085 180.999468,158.742021 C180.426596,155.103723 176.858511,152.3 172.540426,152.3 C167.823404,152.3 164,155.646277 164,159.772872 C164,162.080319 165.196809,164.143617 167.073404,165.515957 C166.834043,166.715957 166.535638,168.294149 166.578723,168.241489 C166.644149,168.217553 168.294149,167.301596 169.331383,166.701596 C170.32234,167.051064 171.404255,167.24734 172.540426,167.24734 C172.660106,167.24734 172.776596,167.244149 172.896277,167.240957 C172.76383,166.725532 172.695213,166.19734 172.695213,165.645213 C172.693617,161.81383 176.071809,158.706915 180.241489,158.706915 Z M175.894681,156.267021 C176.485106,156.267021 176.962234,156.744149 176.962234,157.332979 C176.962234,157.923404 176.483511,158.402128 175.894681,158.402128 C175.305851,158.402128 174.827128,157.921809 174.827128,157.332979 C174.827128,156.744149 175.305851,156.267021 175.894681,156.267021 Z M169.337766,158.402128 C168.74734,158.402128 168.271809,157.921809 168.271809,157.332979 C168.271809,156.744149 168.748936,156.267021 169.337766,156.267021 C169.926596,156.267021 170.405319,156.744149 170.405319,157.332979 C170.405319,157.923404 169.926596,158.402128 169.337766,158.402128 Z M187.942553,165.415426 C187.942553,161.962234 184.666489,159.163298 180.624468,159.163298 C176.580851,159.163298 173.303191,161.96383 173.303191,165.415426 C173.303191,168.868617 176.580851,171.670745 180.624468,171.670745 C181.723936,171.670745 182.765957,171.461702 183.704255,171.089894 C184.669681,171.605319 185.721277,172.147872 185.773936,172.16383 C185.810638,172.203723 185.603191,171.193617 185.378191,170.173936 C186.945213,169.021809 187.942553,167.320745 187.942553,165.415426 Z M177.878191,164.043085 C177.287766,164.043085 176.809043,163.565957 176.809043,162.977128 C176.809043,162.388298 177.287766,161.907979 177.878191,161.907979 C178.467021,161.907979 178.944149,162.388298 178.944149,162.977128 C178.944149,163.565957 178.467021,164.043085 177.878191,164.043085 Z M183.214362,164.043085 C182.625532,164.043085 182.145213,163.565957 182.145213,162.977128 C182.145213,162.388298 182.625532,161.907979 183.214362,161.907979 C183.803191,161.907979 184.283511,162.388298 184.283511,162.977128 C184.283511,163.565957 183.803191,164.043085 183.214362,164.043085 Z" id="wx_icon"></path>
            </g>
        </g>
    </g>
</svg>