<?xml version="1.0" encoding="UTF-8"?>
<svg width="32px" height="32px" viewBox="0 0 32 32" version="1.1" xmlns="http://www.w3.org/2000/svg" xmlns:xlink="http://www.w3.org/1999/xlink">
    <!-- Generator: Sketch 56.3 (81716) - https://sketch.com -->
    <title>个人方案@1x</title>
    <desc>Created with Sketch.</desc>
    <g id="Page-1" stroke="none" stroke-width="1" fill="none" fill-rule="evenodd">
        <g id="2产品方案-菜单" transform="translate(-156.000000, -723.000000)">
            <g id="Group-9" transform="translate(156.000000, 722.000000)">
                <g id="Group-12">
                    <g id="Group-8">
                        <g id="个人方案" transform="translate(0.000000, 1.000000)">
                            <rect id="Rectangle-Copy-47" stroke="#979797" stroke-width="0.5" fill="#D8D8D8" opacity="0" x="0.25" y="0.25" width="31.5" height="31.5"></rect>
                            <g id="Group-22" transform="translate(3.133333, 4.000000)" fill="#000000" fill-rule="nonzero">
                                <path d="M6.18187725,3.19744231e-14 L19.5514561,3.19744231e-14 C19.8465841,3.19744231e-14 20.117741,0.162487689 20.2569163,0.422739018 L24.6087862,8.56053035 C25.303288,9.85924657 24.8134912,11.4750738 23.5147818,12.1695884 C23.1602156,12.3592008 22.7673612,12.4661781 22.3656111,12.4825167 C22.0408349,12.4957248 21.715152,12.5126637 21.3885623,12.5333333 C19.5791387,12.6478504 18.0175433,12.010759 16.7037761,10.6220593 C15.6468187,11.896242 14.2630011,12.5333333 12.5523232,12.5333333 C10.8416453,12.5333333 9.45782767,11.896242 8.40087032,10.6220593 C7.12048694,12.0893352 5.55889153,12.7264265 3.7160841,12.5333333 C3.55334875,12.5162816 3.39272504,12.5007357 3.23421297,12.4866955 C1.76718604,12.3567718 0.683264955,11.0621747 0.813205945,9.59514932 C0.844898012,9.23734792 0.948549798,8.88963713 1.11794102,8.57288353 L5.47641701,0.422739018 C5.61559236,0.162487689 5.88674926,3.19744231e-14 6.18187725,3.19744231e-14 Z M6.90096359,2 L2.88159163,9.51603598 C2.83924299,9.59522592 2.81332954,9.68215531 2.80540637,9.77160741 C2.77292078,10.1383677 3.04389882,10.4620128 3.41067106,10.4944951 C3.57992148,10.5094864 3.75119835,10.5260634 3.92450719,10.544223 C5.11008321,10.6684501 6.03539588,10.290946 6.89394555,9.30707723 L8.43945087,7.53598061 L9.94019744,9.34515989 C10.6135267,10.1568715 11.4312345,10.5333333 12.5523232,10.5333333 C13.6734119,10.5333333 14.4911197,10.1568715 15.164449,9.34515989 L16.6054884,7.60795874 L18.1566438,9.24758652 C19.0684435,10.211392 20.0546815,10.6137521 21.2622366,10.5373269 C21.6038104,10.5157089 21.9445128,10.4979889 22.2843413,10.4841686 C22.3847772,10.480084 22.4829892,10.4533401 22.5716294,10.4059378 C22.8963038,10.2323107 23.0187549,9.82835041 22.8451356,9.5036828 L18.8323697,2 L6.90096359,2 Z M5.06666667,23 L20.6666667,23 L20.6666667,15.2 C20.6666667,14.6477153 21.1143819,14.2 21.6666667,14.2 C22.2189514,14.2 22.6666667,14.6477153 22.6666667,15.2 L22.6666667,24 C22.6666667,24.5522847 22.2189514,25 21.6666667,25 L4.06666667,25 C3.51438192,25 3.06666667,24.5522847 3.06666667,24 L3.06666667,15.2 C3.06666667,14.6477153 3.51438192,14.2 4.06666667,14.2 C4.61895142,14.2 5.06666667,14.6477153 5.06666667,15.2 L5.06666667,23 Z" id="Combined-Shape"></path>
                            </g>
                        </g>
                    </g>
                </g>
            </g>
        </g>
    </g>
</svg>