<?xml version="1.0" encoding="UTF-8"?>
<svg width="32px" height="32px" viewBox="0 0 32 32" version="1.1" xmlns="http://www.w3.org/2000/svg" xmlns:xlink="http://www.w3.org/1999/xlink">
    <!-- Generator: Sketch 56.3 (81716) - https://sketch.com -->
    <title>企业方案@1x</title>
    <desc>Created with Sketch.</desc>
    <g id="Page-1" stroke="none" stroke-width="1" fill="none" fill-rule="evenodd">
        <g id="2产品方案-菜单" transform="translate(-732.000000, -1244.000000)">
            <g id="Group-9-Copy-3" transform="translate(732.000000, 1243.000000)">
                <g id="Group-12">
                    <g id="Group-8">
                        <g id="企业方案" transform="translate(0.000000, 1.000000)">
                            <rect id="Rectangle-Copy-49" stroke="#979797" stroke-width="0.5" fill="#D8D8D8" opacity="0" x="0.25" y="0.25" width="31.5" height="31.5"></rect>
                            <g id="Group-23" transform="translate(1.133333, 2.733333)" fill="#00021D" fill-rule="nonzero">
                                <path d="M14.0666667,22.5333333 L16.5907593,22.5333333 L16.5907593,3.46666667 L16.6,3.46666667 L16.6,2 L4.6,2 L4.6,22.5333333 L7.13333333,22.5333333 L7.13333333,15.4666667 L14.0666667,15.4666667 L14.0666667,22.5333333 Z M2.6,22.5333333 L2.6,-1.42108547e-14 L18.6,-1.42108547e-14 L18.6,3.46666667 L26.457426,3.46666667 L26.457426,22.5333333 L27.6421568,22.5333333 C28.1944416,22.5333333 28.6421568,22.9810486 28.6421568,23.5333333 C28.6421568,24.0856181 28.1944416,24.5333333 27.6421568,24.5333333 L1.90882348,24.5333333 C1.35653873,24.5333333 0.908823479,24.0856181 0.908823479,23.5333333 C0.908823479,22.9810486 1.35653873,22.5333333 1.90882348,22.5333333 L2.6,22.5333333 Z M18.6,22.5333333 L24.457426,22.5333333 L24.457426,5.46666667 L18.6,5.46666667 L18.6,22.5333333 Z M9.13333333,17.4666667 L9.13333333,22.5333333 L12.0666667,22.5333333 L12.0666667,17.4666667 L9.13333333,17.4666667 Z M8.36666667,3.46666667 L12.2333333,3.46666667 C12.7856181,3.46666667 13.2333333,3.91438192 13.2333333,4.46666667 C13.2333333,5.01895142 12.7856181,5.46666667 12.2333333,5.46666667 L8.36666667,5.46666667 C7.81438192,5.46666667 7.36666667,5.01895142 7.36666667,4.46666667 C7.36666667,3.91438192 7.81438192,3.46666667 8.36666667,3.46666667 Z M21.0666667,8 L22.5333333,8 C23.0856181,8 23.5333333,8.44771525 23.5333333,9 C23.5333333,9.55228475 23.0856181,10 22.5333333,10 L21.0666667,10 C20.5143819,10 20.0666667,9.55228475 20.0666667,9 C20.0666667,8.44771525 20.5143819,8 21.0666667,8 Z M8.36666667,9.6 L12.2333333,9.6 C12.7856181,9.6 13.2333333,10.0477153 13.2333333,10.6 C13.2333333,11.1522847 12.7856181,11.6 12.2333333,11.6 L8.36666667,11.6 C7.81438192,11.6 7.36666667,11.1522847 7.36666667,10.6 C7.36666667,10.0477153 7.81438192,9.6 8.36666667,9.6 Z M21.0666667,14.1333333 L22.5333333,14.1333333 C23.0856181,14.1333333 23.5333333,14.5810486 23.5333333,15.1333333 C23.5333333,15.6856181 23.0856181,16.1333333 22.5333333,16.1333333 L21.0666667,16.1333333 C20.5143819,16.1333333 20.0666667,15.6856181 20.0666667,15.1333333 C20.0666667,14.5810486 20.5143819,14.1333333 21.0666667,14.1333333 Z" id="Combined-Shape"></path>
                            </g>
                        </g>
                    </g>
                </g>
            </g>
        </g>
    </g>
</svg>