<?xml version="1.0" encoding="UTF-8"?>
<svg width="48px" height="48px" viewBox="0 0 48 48" version="1.1" xmlns="http://www.w3.org/2000/svg" xmlns:xlink="http://www.w3.org/1999/xlink">
    <!-- Generator: Sketch 56.3 (81716) - https://sketch.com -->
    <title>公安认证@1x</title>
    <desc>Created with Sketch.</desc>
    <g id="Page-1" stroke="none" stroke-width="1" fill="none" fill-rule="evenodd">
        <g id="6政府合作" transform="translate(-264.000000, -659.000000)">
            <g id="公安认证" transform="translate(264.000000, 659.000000)">
                <g>
                    <rect id="Rectangle-Copy-45" stroke="#979797" stroke-width="0.5" fill="#D8D8D8" opacity="0" x="0.25" y="0.25" width="47.5" height="47.5"></rect>
                    <g id="Group-25" transform="translate(7.200000, 4.400000)" stroke="#0D4C9A">
                        <path d="M27.2533333,7.14545455 C27.2533333,6.89047648 27.2715665,6.63740895 27.3075457,6.38737663 L16.8918339,2.57676595 L6.29522417,6.40688134 C6.32936972,6.65057077 6.34666667,6.89710816 6.34666667,7.14545455 C6.34666667,8.49013551 5.83828537,9.75237523 4.95965529,10.781819 L4.95112375,10.781819 C4.28686429,11.3570271 3.61426749,11.7269136 2.93333333,11.8914786 L2.93333333,19.9800147 L2.94749911,19.9800147 C3.23189801,24.336034 7.80022713,30.1117222 16.7999976,37.0936895 C25.7997686,30.1116985 30.3681001,24.3360089 30.6525007,19.9800147 L30.6666667,19.9800147 L30.6666667,12.6 C30.1586602,12.2497447 29.7487755,11.9312885 29.4370125,11.6446312 C29.1252496,11.3579739 28.8596936,11.0703698 28.6403447,10.781819 C27.7617146,9.75237523 27.2533333,8.49013551 27.2533333,7.14545455 Z M32.8,19.5506953 C32.8,24.8932584 27.4666667,31.57636 16.8,39.6 C6.13333333,31.5763893 0.8,24.8932878 0.8,19.5506953 C0.8,17.1379603 0.803297479,14.8220767 0.809838212,12.6 L0.8,12.6 L0.8,11.2607917 C2.78859498,10.6617569 4.21333333,9.0454092 4.21333333,7.14545455 C4.21333333,6.50473754 4.05130867,5.896273 3.76027442,5.34819879 L16.8969046,0.6 L29.8455413,5.33728673 C29.5508506,5.88819222 29.3866667,6.50048224 29.3866667,7.14545455 C29.3866667,9.0454092 30.811405,10.6617569 32.8,11.2607917 L32.8,12.6 L32.7866534,12.6 C32.7955225,14.8073016 32.8,17.1228342 32.8,19.5506953 Z" id="Shape" stroke-width="0.4" fill="#0D4C9A" fill-rule="nonzero"></path>
                        <polygon id="Star" stroke-width="2" stroke-linejoin="round" points="16.8 20.3 12.8030603 22.3395122 13.5664078 18.0197561 10.3328157 14.9604878 14.8015301 14.3302439 16.8 10.4 18.7984699 14.3302439 23.2671843 14.9604878 20.0335922 18.0197561 20.7969397 22.3395122"></polygon>
                    </g>
                </g>
            </g>
        </g>
    </g>
</svg>