<?xml version="1.0" encoding="UTF-8"?>
<svg width="48px" height="48px" viewBox="0 0 48 48" version="1.1" xmlns="http://www.w3.org/2000/svg" xmlns:xlink="http://www.w3.org/1999/xlink">
    <!-- Generator: Sketch 56.3 (81716) - https://sketch.com -->
    <title>政府接口@1x</title>
    <desc>Created with Sketch.</desc>
    <g id="Page-1" stroke="none" stroke-width="1" fill="none" fill-rule="evenodd">
        <g id="6政府合作" transform="translate(-552.000000, -659.000000)">
            <g id="政府接口" transform="translate(552.000000, 659.000000)">
                <rect id="Rectangle-Copy-40" stroke="#979797" stroke-width="0.5" fill="#D8D8D8" opacity="0" x="0.25" y="0.25" width="47.5" height="47.5"></rect>
                <g id="Group-26" transform="translate(3.200000, 3.400000)" fill="#0D4C9A">
                    <path d="M14.85,34.8 L40.35,34.8 C41.0403559,34.8 41.6,35.3596441 41.6,36.05 C41.6,36.7403559 41.0403559,37.3 40.35,37.3 L14.85,37.3 L14.85,38.8 C14.85,39.9321837 13.9321837,40.85 12.8,40.85 L9.6,40.85 C8.46781626,40.85 7.55,39.9321837 7.55,38.8 L7.55,37.3 L1.25,37.3 C0.559644063,37.3 1.09787307e-12,36.7403559 1.09778853e-12,36.05 C1.09770398e-12,35.3596441 0.559644063,34.8 1.25,34.8 L7.55,34.8 L7.55,32.8 C7.55,31.6678163 8.46781626,30.75 9.6,30.75 L12.8,30.75 C13.9321837,30.75 14.85,31.6678163 14.85,32.8 L14.85,34.8 Z M34.05,19.8 L40.35,19.8 C41.0403559,19.8 41.6,20.3596441 41.6,21.05 C41.6,21.7403559 41.0403559,22.3 40.35,22.3 L34.05,22.3 L34.05,23.8 C34.05,24.9321837 33.1321837,25.85 32,25.85 L28.8,25.85 C27.6678163,25.85 26.75,24.9321837 26.75,23.8 L26.75,22.3 L1.25,22.3 C0.559644063,22.3 1.09787307e-12,21.7403559 1.09778853e-12,21.05 C1.09770398e-12,20.3596441 0.559644063,19.8 1.25,19.8 L26.75,19.8 L26.75,17.8 C26.75,16.6678163 27.6678163,15.75 28.8,15.75 L32,15.75 C33.1321837,15.75 34.05,16.6678163 34.05,17.8 L34.05,19.8 Z M7.55,7.3 L1.25,7.3 C0.559644063,7.3 1.09787307e-12,6.74035594 1.09778853e-12,6.05 C1.09770398e-12,5.35964406 0.559644063,4.8 1.25,4.8 L7.55,4.8 L7.55,2.8 C7.55,1.66781626 8.46781626,0.75 9.6,0.75 L12.8,0.75 C13.9321837,0.75 14.85,1.66781626 14.85,2.8 L14.85,4.8 L40.35,4.8 C41.0403559,4.8 41.6,5.35964406 41.6,6.05 C41.6,6.74035594 41.0403559,7.3 40.35,7.3 L14.85,7.3 L14.85,8.8 C14.85,9.93218374 13.9321837,10.85 12.8,10.85 L9.6,10.85 C8.46781626,10.85 7.55,9.93218374 7.55,8.8 L7.55,7.3 Z M10.05,3.25 L10.05,8.35 L12.35,8.35 L12.35,3.25 L10.05,3.25 Z M10.05,38.35 L12.35,38.35 L12.35,33.25 L10.05,33.25 L10.05,38.35 Z M29.25,23.35 L31.55,23.35 L31.55,18.25 L29.25,18.25 L29.25,23.35 Z" id="Combined-Shape"></path>
                </g>
            </g>
        </g>
    </g>
</svg>