<?xml version="1.0" encoding="UTF-8"?>
<svg width="32px" height="32px" viewBox="0 0 32 32" version="1.1" xmlns="http://www.w3.org/2000/svg" xmlns:xlink="http://www.w3.org/1999/xlink">
    <!-- Generator: Sketch 56.3 (81716) - https://sketch.com -->
    <title>智慧酒店解决方案@1x</title>
    <desc>Created with Sketch.</desc>
    <g id="Page-1" stroke="none" stroke-width="1" fill="none" fill-rule="evenodd">
        <g id="7解决方案-菜单" transform="translate(-732.000000, -2233.000000)">
            <g id="Group-9-Copy-5" transform="translate(732.000000, 2232.000000)">
                <g id="Group-12">
                    <g id="Group-8">
                        <g id="智慧酒店解决方案" transform="translate(0.000000, 1.000000)">
                            <rect id="Rectangle-Copy-38" stroke="#979797" stroke-width="0.5" fill="#D8D8D8" opacity="0" x="0.25" y="0.25" width="31.5" height="31.5"></rect>
                            <g id="Group-17" transform="translate(3.733333, 0.666667)" fill="#00021D" fill-rule="nonzero">
                                <path d="M1.13333333,26.2539807 L1.13333333,12.4666667 C1.13333333,5.58151679 6.71485012,-1.22568622e-13 13.6,-1.22568622e-13 L14.6,-1.22568622e-13 L14.6,4.36662079 L23.6666667,12.6273331 L23.6666667,26.2539807 L23.8,26.2539807 C24.3522847,26.2539807 24.8,26.701696 24.8,27.2539807 C24.8,27.8062655 24.3522847,28.2539807 23.8,28.2539807 L23.6666667,28.2539807 L23.6666667,28.2666667 L14.6,28.2666667 L1.13333333,28.2666667 L1.13333333,28.2539807 L1,28.2539807 C0.44771525,28.2539807 9.06618342e-14,27.8062655 9.05941988e-14,27.2539807 C9.05265634e-14,26.701696 0.44771525,26.2539807 1,26.2539807 L1.13333333,26.2539807 Z M14.6,26.2539807 L21.6666667,26.2539807 L21.6666667,13.5107541 L14.6,7.07225769 L14.6,26.2539807 Z M3.13333333,26.2539807 L12.6,26.2539807 L12.6,2.54440483 L12.6,2.04715116 C7.28850699,2.550594 3.13333333,7.02338393 3.13333333,12.4666667 L3.13333333,26.2539807 Z M6.33333333,9 L9.66666667,9 C10.2189514,9 10.6666667,9.44771525 10.6666667,10 C10.6666667,10.5522847 10.2189514,11 9.66666667,11 L6.33333333,11 C5.78104858,11 5.33333333,10.5522847 5.33333333,10 C5.33333333,9.44771525 5.78104858,9 6.33333333,9 Z M6.33333333,15.1333333 L9.66666667,15.1333333 C10.2189514,15.1333333 10.6666667,15.5810486 10.6666667,16.1333333 C10.6666667,16.6856181 10.2189514,17.1333333 9.66666667,17.1333333 L6.33333333,17.1333333 C5.78104858,17.1333333 5.33333333,16.6856181 5.33333333,16.1333333 C5.33333333,15.5810486 5.78104858,15.1333333 6.33333333,15.1333333 Z M16.7333333,15.1333333 L18.4666667,15.1333333 C19.0189514,15.1333333 19.4666667,15.5810486 19.4666667,16.1333333 C19.4666667,16.6856181 19.0189514,17.1333333 18.4666667,17.1333333 L16.7333333,17.1333333 C16.1810486,17.1333333 15.7333333,16.6856181 15.7333333,16.1333333 C15.7333333,15.5810486 16.1810486,15.1333333 16.7333333,15.1333333 Z M16.7333333,21.2666667 L18.4666667,21.2666667 C19.0189514,21.2666667 19.4666667,21.7143819 19.4666667,22.2666667 C19.4666667,22.8189514 19.0189514,23.2666667 18.4666667,23.2666667 L16.7333333,23.2666667 C16.1810486,23.2666667 15.7333333,22.8189514 15.7333333,22.2666667 C15.7333333,21.7143819 16.1810486,21.2666667 16.7333333,21.2666667 Z M6.33333333,21.2666667 L9.66666667,21.2666667 C10.2189514,21.2666667 10.6666667,21.7143819 10.6666667,22.2666667 C10.6666667,22.8189514 10.2189514,23.2666667 9.66666667,23.2666667 L6.33333333,23.2666667 C5.78104858,23.2666667 5.33333333,22.8189514 5.33333333,22.2666667 C5.33333333,21.7143819 5.78104858,21.2666667 6.33333333,21.2666667 Z" id="Combined-Shape"></path>
                            </g>
                        </g>
                    </g>
                </g>
            </g>
        </g>
    </g>
</svg>