<?xml version="1.0" encoding="UTF-8"?>
<svg width="32px" height="32px" viewBox="0 0 32 32" version="1.1" xmlns="http://www.w3.org/2000/svg" xmlns:xlink="http://www.w3.org/1999/xlink">
    <!-- Generator: Sketch 56.3 (81716) - https://sketch.com -->
    <title>智慧政务解决方案@1x</title>
    <desc>Created with Sketch.</desc>
    <g id="Page-1" stroke="none" stroke-width="1" fill="none" fill-rule="evenodd">
        <g id="7解决方案-菜单" transform="translate(-156.000000, -1736.000000)">
            <g id="Group-9-Copy-4" transform="translate(156.000000, 1735.000000)">
                <g id="Group-12">
                    <g id="Group-8">
                        <g id="智慧政务解决方案" transform="translate(0.000000, 1.000000)">
                            <rect id="Rectangle-Copy-44" stroke="#979797" stroke-width="0.5" fill="#D8D8D8" opacity="0" x="0.25" y="0.25" width="31.5" height="31.5"></rect>
                            <g id="Group-18" transform="translate(3.533333, 0.466667)" fill="#00021D" fill-rule="nonzero">
                                <g id="Group-11">
                                    <path d="M19.9333333,21.8666667 L19.9333333,12.6666667 L17.7166667,12.6666667 L17.7166667,21.8666667 L19.9333333,21.8666667 Z M21.9333333,21.8666667 L23.9333333,21.8666667 C24.4856181,21.8666667 24.9333333,22.3143819 24.9333333,22.8666667 L24.9333333,26.3333333 C24.9333333,26.8856181 24.4856181,27.3333333 23.9333333,27.3333333 L1,27.3333333 C0.44771525,27.3333333 3.19744231e-14,26.8856181 3.19744231e-14,26.3333333 L3.19744231e-14,22.8666667 C3.19744231e-14,22.3143819 0.44771525,21.8666667 1,21.8666667 L3.06666667,21.8666667 L3.06666667,12.6666667 L1,12.6666667 C0.44771525,12.6666667 3.19744231e-14,12.2189514 3.19744231e-14,11.6666667 L3.19744231e-14,8.21902285 C3.19744231e-14,7.87539782 0.17643019,7.55584043 0.467225324,7.37276571 L11.933892,0.153742862 C12.2594059,-0.0511895888 12.6736104,-0.0512520628 12.999186,0.153582184 L24.4658527,7.36777595 C24.7567938,7.55082004 24.9333333,7.8704615 24.9333333,8.21419377 L24.9333333,11.6666667 C24.9333333,12.2189514 24.4856181,12.6666667 23.9333333,12.6666667 L21.9333333,12.6666667 L21.9333333,21.8666667 Z M5.06666667,21.8666667 L7.28333333,21.8666667 L7.28333333,12.6666667 L5.06666667,12.6666667 L5.06666667,21.8666667 Z M9.28333333,21.8666667 L11.5,21.8666667 L11.5,12.6666667 L9.28333333,12.6666667 L9.28333333,21.8666667 Z M13.5,21.8666667 L15.7166667,21.8666667 L15.7166667,12.6666667 L13.5,12.6666667 L13.5,21.8666667 Z M12.4668449,2.18156173 L2,8.77113084 L2,10.6666667 L22.9333333,10.6666667 L22.9333333,8.76649857 L12.4668449,2.18156173 Z M14.5370667,7.92266667 L11.7552,7.92266667 C11.7552,8.4944 12.1050667,8.91253333 12.728,8.91253333 C13.2144,8.91253333 13.4533333,8.776 13.7349333,8.4944 L14.4090667,9.15146667 C13.9568,9.60373333 13.5216,9.8512 12.7194667,9.8512 C11.6698667,9.8512 10.6629333,9.37333333 10.6629333,7.5728 C10.6629333,6.12213333 11.448,5.30293333 12.6,5.30293333 C13.8373333,5.30293333 14.5370667,6.20746667 14.5370667,7.42773333 L14.5370667,7.92266667 Z M13.4448,7.1632 C13.4362667,6.96693333 13.4106667,6.84746667 13.3424,6.68533333 C13.2229333,6.4208 12.9754667,6.22453333 12.6,6.22453333 C12.2245333,6.22453333 11.9770667,6.4208 11.8576,6.68533333 C11.7893333,6.84746667 11.7637333,6.96693333 11.7552,7.1632 L13.4448,7.1632 Z M2,23.8666667 L2,25.3333333 L22.9333333,25.3333333 L22.9333333,23.8666667 L2,23.8666667 Z" id="Combined-Shape"></path>
                                </g>
                            </g>
                        </g>
                    </g>
                </g>
            </g>
        </g>
    </g>
</svg>