<?xml version="1.0" encoding="UTF-8"?>
<svg width="48px" height="48px" viewBox="0 0 48 48" version="1.1" xmlns="http://www.w3.org/2000/svg" xmlns:xlink="http://www.w3.org/1999/xlink">
    <!-- Generator: Sketch 56.3 (81716) - https://sketch.com -->
    <title>权威授权@1x</title>
    <desc>Created with Sketch.</desc>
    <g id="Page-1" stroke="none" stroke-width="1" fill="none" fill-rule="evenodd">
        <g id="6政府合作" transform="translate(-840.000000, -659.000000)">
            <g id="Group-9-Copy-2" transform="translate(820.000000, 659.000000)">
                <g id="权威授权" transform="translate(20.000000, 0.000000)">
                    <rect id="Rectangle-Copy-41" stroke="#979797" stroke-width="0.5" fill="#D8D8D8" opacity="0" x="0.25" y="0.25" width="47.5" height="47.5"></rect>
                    <g id="Group-27" transform="translate(3.800000, 4.600000)">
                        <path d="M28.0657254,30.64 L28.6182881,26.7608802 C28.1050417,26.0734371 27.8,25.2133156 27.8,24.28 C27.8,22.0266782 29.5780691,20.2 31.7714286,20.2 C33.9647881,20.2 35.7428572,22.0266782 35.7428572,24.28 C35.7428572,25.2249075 35.4301911,26.0947914 34.9053491,26.7864145 L35.4542746,30.64 L38.24,30.64 C38.8364675,30.64 39.32,31.1235325 39.32,31.72 L39.32,35.68 C39.32,36.2764675 38.8364675,36.76 38.24,36.76 L25.28,36.76 C24.6835325,36.76 24.2,36.2764675 24.2,35.68 L24.2,31.72 C24.2,31.1235325 24.6835325,30.64 25.28,30.64 L28.0657254,30.64 Z M3.25,35.95 L20.4,35.95 C21.0903559,35.95 21.65,36.5096441 21.65,37.2 C21.65,37.8903559 21.0903559,38.45 20.4,38.45 L2.2,38.45 C1.39918711,38.45 0.75,37.8008129 0.75,37 L0.75,2.2 C0.75,1.39918711 1.39918711,0.75 2.2,0.75 L31.8,0.75 C32.6008129,0.75 33.25,1.39918711 33.25,2.2 L33.25,16.4 C33.25,17.0903559 32.6903559,17.65 32,17.65 C31.3096441,17.65 30.75,17.0903559 30.75,16.4 L30.75,3.25 L3.25,3.25 L3.25,35.95 Z M26.7,33.14 L26.7,34.26 L36.82,34.26 L36.82,33.14 L26.7,33.14 Z M32.4303329,27.1389692 C32.3361893,26.4780589 32.5102895,25.8069479 32.9138462,25.2751515 C33.1255663,24.9961522 33.2428572,24.6518487 33.2428572,24.28 C33.2428572,23.3925249 32.5687608,22.7 31.7714286,22.7 C30.9740964,22.7 30.3,23.3925249 30.3,24.28 C30.3,24.6474156 30.4144726,24.9878794 30.6215508,25.2652403 C31.0168813,25.7947466 31.1864923,26.4592337 31.0933043,27.1134348 L30.6813495,30.0054545 L32.8386505,30.0054545 L32.4303329,27.1389692 Z M9.05,7.4 L24.95,7.4 C25.6403559,7.4 26.2,7.95964406 26.2,8.65 C26.2,9.34035594 25.6403559,9.9 24.95,9.9 L9.05,9.9 C8.35964406,9.9 7.8,9.34035594 7.8,8.65 C7.8,7.95964406 8.35964406,7.4 9.05,7.4 Z M9.05,16.2 L21.75,16.2 C22.4403559,16.2 23,16.7596441 23,17.45 C23,18.1403559 22.4403559,18.7 21.75,18.7 L9.05,18.7 C8.35964406,18.7 7.8,18.1403559 7.8,17.45 C7.8,16.7596441 8.35964406,16.2 9.05,16.2 Z M9.05,25 L17.35,25 C18.0403559,25 18.6,25.5596441 18.6,26.25 C18.6,26.9403559 18.0403559,27.5 17.35,27.5 L9.05,27.5 C8.35964406,27.5 7.8,26.9403559 7.8,26.25 C7.8,25.5596441 8.35964406,25 9.05,25 Z" id="Combined-Shape" fill="#0D4C9A" fill-rule="nonzero"></path>
                        <g id="Group-6" transform="translate(24.200000, 20.200000)"></g>
                    </g>
                </g>
            </g>
        </g>
    </g>
</svg>