<?xml version="1.0" encoding="UTF-8"?>
<svg width="48px" height="48px" viewBox="0 0 48 48" version="1.1" xmlns="http://www.w3.org/2000/svg" xmlns:xlink="http://www.w3.org/1999/xlink">
    <!-- Generator: Sketch 56.3 (81716) - https://sketch.com -->
    <title>治安备案@1x</title>
    <desc>Created with Sketch.</desc>
    <g id="Page-1" stroke="none" stroke-width="1" fill="none" fill-rule="evenodd">
        <g id="6政府合作" transform="translate(-1128.000000, -659.000000)">
            <g id="Group-9-Copy-3" transform="translate(1108.000000, 659.000000)">
                <g id="治安备案" transform="translate(20.000000, 0.000000)">
                    <rect id="Rectangle-Copy-52" stroke="#979797" stroke-width="0.5" fill="#D8D8D8" opacity="0" x="0.25" y="0.25" width="47.5" height="47.5"></rect>
                    <g id="Group-28" transform="translate(8.000000, 5.600000)" fill="#0D4C9A" fill-rule="nonzero">
                        <path d="M31,16.4 C30.4477153,16.4 30,15.9522847 30,15.4 L30,2 L2,2 L2,35.2 L19.4,35.2 C19.9522847,35.2 20.4,35.6477153 20.4,36.2 C20.4,36.7522847 19.9522847,37.2 19.4,37.2 L1.2,37.2 C0.5372583,37.2 0,36.6627417 0,36 L0,1.2 C0,0.5372583 0.5372583,0 1.2,0 L30.8,0 C31.4627417,0 32,0.5372583 32,1.2 L32,15.4 C32,15.9522847 31.5522847,16.4 31,16.4 Z" id="Path-Copy-12"></path>
                        <path d="M1.2,2.13162821e-14 L30.8,2.13162821e-14 C31.4627417,2.13162821e-14 32,0.5372583 32,1.2 L32,36 C32,36.6627417 31.4627417,37.2 30.8,37.2 L1.2,37.2 C0.5372583,37.2 0,36.6627417 0,36 L0,1.2 C0,0.5372583 0.5372583,2.13162821e-14 1.2,2.13162821e-14 Z M2.5,2.5 L2.5,34.7 L29.5,34.7 L29.5,2.5 L2.5,2.5 Z M13.6439719,16.368413 C12.9103445,16.7541037 12.0529121,16.1311426 12.1930225,15.3142365 L12.6429838,12.6907607 L10.736917,10.8328048 C10.1434,10.2542687 10.4709101,9.2462964 11.2911304,9.12711141 L13.9252499,8.74435145 L15.1032639,6.35743429 C15.4700776,5.61418857 16.5299224,5.61418857 16.8967361,6.35743429 L18.0747501,8.74435145 L20.7088696,9.12711141 C21.5290899,9.2462964 21.8566,10.2542687 21.263083,10.8328048 L19.3570162,12.6907607 L19.8069775,15.3142365 C19.9470879,16.1311426 19.0896555,16.7541037 18.3560281,16.368413 L16,15.1297757 L13.6439719,16.368413 Z M15.5346589,13.1148686 C15.8259829,12.9617105 16.1740171,12.9617105 16.4653411,13.1148686 L17.4932382,13.655266 L17.2969273,12.5106858 C17.2412894,12.1862918 17.3488379,11.8552916 17.5845239,11.6255544 L18.4161101,10.8149582 L17.2668863,10.6479662 C16.9411761,10.6006378 16.6596105,10.3960684 16.5139485,10.1009249 L16,9.05955146 L15.4860515,10.1009249 C15.3403895,10.3960684 15.0588239,10.6006378 14.7331137,10.6479662 L13.5838899,10.8149582 L14.4154761,11.6255544 C14.6511621,11.8552916 14.7587106,12.1862918 14.7030727,12.5106858 L14.5067618,13.655266 L15.5346589,13.1148686 Z M11.25,21.6 L20.75,21.6 C21.4403559,21.6 22,22.1596441 22,22.85 C22,23.5403559 21.4403559,24.1 20.75,24.1 L11.25,24.1 C10.5596441,24.1 10,23.5403559 10,22.85 C10,22.1596441 10.5596441,21.6 11.25,21.6 Z M7.65,28 L24.35,28 C25.0403559,28 25.6,28.5596441 25.6,29.25 C25.6,29.9403559 25.0403559,30.5 24.35,30.5 L7.65,30.5 C6.95964406,30.5 6.4,29.9403559 6.4,29.25 C6.4,28.5596441 6.95964406,28 7.65,28 Z" id="Combined-Shape"></path>
                    </g>
                </g>
            </g>
        </g>
    </g>
</svg>