<?xml version="1.0" encoding="UTF-8"?>
<svg width="48px" height="48px" viewBox="0 0 48 48" version="1.1" xmlns="http://www.w3.org/2000/svg" xmlns:xlink="http://www.w3.org/1999/xlink">
    <!-- Generator: Sketch 56.3 (81716) - https://sketch.com -->
    <title>电话联系@1x</title>
    <desc>Created with Sketch.</desc>
    <g id="Page-1" stroke="none" stroke-width="1" fill="none" fill-rule="evenodd">
        <g id="1首页" transform="translate(-1364.000000, -704.000000)">
            <g id="Group-17" transform="translate(1360.000000, 644.000000)">
                <g id="电话联系" transform="translate(4.000000, 60.000000)">
                    <rect id="Rectangle" fill="#D8D8D8" opacity="0" x="0" y="0" width="48" height="48"></rect>
                    <g id="电-话" transform="translate(12.000000, 12.000000)" fill="#FFFFFF" fill-rule="nonzero">
                        <path d="M17.1643565,10.5800093 C17.1643565,11.0866474 17.5015847,11.4239812 18.0081096,11.4239812 C18.5146344,11.4239812 18.8519233,11.0866474 18.8519233,10.5800093 C18.8438746,7.78590303 16.5813097,5.52283266 13.7878274,5.51478214 C13.2813026,5.51478214 12.9440441,5.85211598 12.9440441,6.35875401 C12.9440441,6.86539205 13.2826375,7.20275623 13.7878274,7.20275623 C15.6504975,7.20787447 17.1592227,8.71692324 17.1643565,10.5800093 L17.1643565,10.5800093 Z M20.5408553,10.5800093 C20.5408553,11.0866474 20.8780835,11.4239812 21.3846083,11.4239812 C21.8911332,11.4239812 22.228422,11.0866474 22.228422,10.5800093 C22.228422,5.93745088 18.4293489,2.13752904 13.7878578,2.13752904 C13.2813026,2.13752904 12.9440441,2.47619813 12.9440441,2.98283617 C12.9440441,3.48947421 13.2826375,3.82680804 13.7878274,3.82680804 C17.5015847,3.82680804 20.5408553,6.86675765 20.5408553,10.5800093 L20.5408553,10.5800093 Z M9.14630594,7.62539463 C10.0754051,6.6974231 10.159386,5.26144795 9.31560266,4.24814153 L6.69890639,0.956223327 C5.85512302,-0.141113086 4.25150683,-0.310447632 3.1531109,0.533554589 C3.06913002,0.618889489 2.98514913,0.618889489 2.98514913,0.702889135 L0.705711343,2.98283617 C-1.48841061,5.1774483 1.63481055,11.0866474 7.2907471,16.7425426 C12.9440744,22.3984075 18.7666074,25.4382964 20.9607294,23.3276839 L23.2401672,21.0477369 C24.2532776,20.0344304 24.2532776,18.430456 23.2401672,17.5024845 L23.0722054,17.3331499 L19.7797179,14.7158691 C18.7679424,13.8719275 17.3336229,13.9558968 16.4045237,14.8852036 L14.9702043,16.3211788 C13.450569,15.391872 12.1002607,14.3785656 10.9178839,13.1972599 C9.73684204,12.0146189 8.72506657,10.6639786 7.79596736,9.14400383 L9.14630594,7.62536428 L9.14630594,7.62539463 Z M7.96526408,5.34544759 C8.21854169,5.68411668 8.21854169,6.19075472 7.87994824,6.44408891 L6.02308479,8.38536685 C5.76023373,8.65451921 5.69317259,9.05910845 5.85512302,9.39870362 C6.85007371,11.2268067 8.10058093,12.9036506 9.56888027,14.3785959 C11.0435197,15.847196 12.719985,17.0979795 14.5476603,18.0931829 C14.8874353,18.254798 15.2919352,18.1871845 15.56071,17.9238483 L17.5015847,15.9825704 C17.8401781,15.6452365 18.2613872,15.6452365 18.5999806,15.8985404 L21.8911636,18.5998209 C21.8911636,18.5998209 21.9751444,18.5998209 21.9751444,18.6838205 C22.1370959,18.8378588 22.2287781,19.0516063 22.2287781,19.275141 C22.2287781,19.4986757 22.1370959,19.7124233 21.9751444,19.8664615 L19.6957066,22.1464085 C18.5999806,23.2423793 13.3666184,20.4571295 8.38650346,15.5599016 C3.40772346,10.664009 0.707046299,5.34678285 1.80410727,4.24817187 L4.16619099,1.88419485 C4.50478444,1.63086066 5.0952902,1.63086066 5.3485678,2.05352939 L7.96526408,5.34678285 L7.96526408,5.34544759 Z" id="Shape"></path>
                    </g>
                </g>
            </g>
        </g>
    </g>
</svg>