<?xml version="1.0" encoding="UTF-8"?>
<svg width="34px" height="32px" viewBox="0 0 34 32" version="1.1" xmlns="http://www.w3.org/2000/svg" xmlns:xlink="http://www.w3.org/1999/xlink">
    <!-- Generator: Sketch 56.3 (81716) - https://sketch.com -->
    <title>网约房解决方案@1x</title>
    <desc>Created with Sketch.</desc>
    <g id="Page-1" stroke="none" stroke-width="1" fill="none" fill-rule="evenodd">
        <g id="7解决方案-菜单" transform="translate(-155.000000, -756.000000)">
            <g id="Group-9" transform="translate(155.000000, 756.000000)">
                <g id="Group-12">
                    <g id="Group-8">
                        <g id="网约房解决方案">
                            <rect id="Rectangle-Copy-35" stroke="#979797" stroke-width="0.5" fill="#D8D8D8" opacity="0" x="1.25" y="0.25" width="31.5" height="31.5"></rect>
                            <g id="Group-10" transform="translate(0.266667, 0.133333)">
                                <g id="Group-2" transform="translate(23.933333, 1.800000)"></g>
                                <path d="M10.0666667,27.2 L10.0666667,21.8 C10.0666667,20.0326888 11.4993555,18.6 13.2666667,18.6 C15.0339779,18.6 16.4666667,20.0326888 16.4666667,21.8 L16.4666667,27.2 L21.6,27.2 L21.6,15.9333333 C21.6,15.3810486 22.0477153,14.9333333 22.6,14.9333333 C23.1522847,14.9333333 23.6,15.3810486 23.6,15.9333333 L23.6,29.2 L2.93333333,29.2 L2.93333333,15.9333333 C2.93333333,15.3810486 3.38104858,14.9333333 3.93333333,14.9333333 C4.48561808,14.9333333 4.93333333,15.3810486 4.93333333,15.9333333 L4.93333333,27.2 L10.0666667,27.2 Z M1.68288388,14.5305269 C1.27942499,14.9076733 0.646619412,14.8863428 0.269473061,14.4828839 C-0.107673291,14.079425 -0.086342766,13.4466194 0.317116122,13.0694731 L11.1269638,2.9646154 C12.3313065,1.83881684 14.2020268,1.83881684 15.4063695,2.9646154 L26.2162172,13.0694731 C26.6196761,13.4466194 26.6410066,14.079425 26.2638603,14.4828839 C25.8867139,14.8863428 25.2539083,14.9076733 24.8504495,14.5305269 L14.0406017,4.42566928 C13.6049884,4.01846555 12.9283449,4.01846555 12.4927316,4.42566928 L1.68288388,14.5305269 Z M10.5333333,10.6 L16,10.6 C16.5522847,10.6 17,11.0477153 17,11.6 C17,12.1522847 16.5522847,12.6 16,12.6 L10.5333333,12.6 C9.98104858,12.6 9.53333333,12.1522847 9.53333333,11.6 C9.53333333,11.0477153 9.98104858,10.6 10.5333333,10.6 Z M14.4666667,21.8 C14.4666667,21.1372583 13.9294084,20.6 13.2666667,20.6 C12.603925,20.6 12.0666667,21.1372583 12.0666667,21.8 L12.0666667,26.7333333 L14.4666667,26.7333333 L14.4666667,21.8 Z M23.5658007,7.08170793 C23.1308266,7.00418805 22.8410527,6.58872958 22.9185726,6.15375547 C22.9960925,5.71878137 23.411551,5.42900747 23.8465251,5.50652736 C24.7500096,5.66754388 25.4807716,6.03990146 26.0089916,6.63030317 C26.5150063,7.19588566 26.8402938,7.91325523 26.9895703,8.76520789 C27.0658243,9.2004057 26.7748429,9.61501932 26.3396451,9.69127333 C25.9044473,9.76752735 25.4898337,9.47654591 25.4135796,9.04134811 C25.3136178,8.47084468 25.1130429,8.02850883 24.8165711,7.69713656 C24.5423046,7.3905835 24.135321,7.18320628 23.5658007,7.08170793 Z M23.431171,4.56766248 C22.9896787,4.58487775 22.6178228,4.24093327 22.6006075,3.79944099 C22.5833922,3.3579487 22.9273367,2.98609275 23.368829,2.96887748 C25.1682127,2.89871346 26.644564,3.4330246 27.7361485,4.57560222 C28.8172903,5.70724942 29.3156566,7.12369738 29.2219476,8.77056756 C29.1968476,9.21168183 28.8189063,9.54892804 28.377792,9.52382807 C27.9366777,9.49872809 27.5994315,9.12078678 27.6245315,8.67967251 C27.6935226,7.4672019 27.3481975,6.48572473 26.5792562,5.68086247 C25.8207575,4.88693063 24.7919739,4.5146002 23.431171,4.56766248 Z M23.3856074,1.79987052 C22.9438511,1.79192173 22.5921807,1.42736373 22.6001295,0.985607439 C22.6080783,0.543851147 22.9726363,0.192180685 23.4143926,0.200129477 C26.093337,0.248333366 28.2262197,1.0260303 29.7695237,2.54804692 C31.3206028,4.07773145 32.0653276,6.12491507 32.0078807,8.63463178 C31.99777,9.07634388 31.6314953,9.42622594 31.1897832,9.41611524 C30.7480711,9.40600453 30.398189,9.03972978 30.4082997,8.59801768 C30.4560885,6.51024028 29.8672734,4.89163879 28.6460368,3.6872472 C27.4170251,2.4751877 25.6780544,1.84111993 23.3856074,1.79987052 Z" id="Combined-Shape" fill="#00021D" fill-rule="nonzero"></path>
                                <g id="Group-3" transform="translate(23.400000, 1.000000)"></g>
                            </g>
                        </g>
                    </g>
                </g>
            </g>
        </g>
    </g>
</svg>