<?xml version="1.0" encoding="UTF-8"?>
<svg width="32px" height="32px" viewBox="0 0 32 32" version="1.1" xmlns="http://www.w3.org/2000/svg" xmlns:xlink="http://www.w3.org/1999/xlink">
    <!-- Generator: Sketch 56.3 (81716) - https://sketch.com -->
    <title>跨境电商解决方案@1x</title>
    <desc>Created with Sketch.</desc>
    <g id="Page-1" stroke="none" stroke-width="1" fill="none" fill-rule="evenodd">
        <g id="7解决方案-菜单" transform="translate(-732.000000, -1249.000000)">
            <g id="Group-9-Copy-3" transform="translate(732.000000, 1248.000000)">
                <g id="Group-12">
                    <g id="Group-8">
                        <g id="跨境电商解决方案" transform="translate(0.000000, 1.000000)">
                            <rect id="Rectangle-Copy-36" stroke="#979797" stroke-width="0.5" fill="#D8D8D8" opacity="0" x="0.25" y="0.25" width="31.5" height="31.5"></rect>
                            <g id="Group-12" transform="translate(1.666667, 1.933333)" fill="#00021D" fill-rule="nonzero">
                                <path d="M19.8283605,18.3333333 L27.9333333,18.3333333 L26.8367785,24.4666667 L18.8965548,24.4666667 L18.7362087,23.5698068 C18.7195303,23.5211783 18.7063954,23.4706356 18.6971561,23.4184247 L17.5222255,16.7789875 L15.9078028,16.7789875 C15.3555181,16.7789875 14.9078028,16.3312722 14.9078028,15.7789875 C14.9078028,15.2267027 15.3555181,14.7789875 15.9078028,14.7789875 L19.199375,14.7789875 L19.8283605,18.3333333 Z M26.1756865,16.3384079 C26.0482573,16.8757906 25.5093207,17.2081236 24.9719379,17.0806944 C24.4345552,16.9532652 24.1022222,16.4143286 24.2296514,15.8769458 C24.4307454,15.028911 24.5333333,14.154878 24.5333333,13.2666667 C24.5333333,7.04425849 19.4890748,2 13.2666667,2 C7.04425849,2 2,7.04425849 2,13.2666667 C2,19.4890748 7.04425849,24.5333333 13.2666667,24.5333333 C13.8481165,24.5333333 14.4236706,24.4893724 14.9901287,24.4024848 C15.5360289,24.3187506 16.0464484,24.6934102 16.1301826,25.2393104 C16.2139168,25.7852106 15.8392573,26.2956301 15.2933571,26.3793643 C14.626643,26.4816299 13.9497212,26.5333333 13.2666667,26.5333333 C5.93968899,26.5333333 -2.84217094e-14,20.5936443 -2.84217094e-14,13.2666667 C-2.84217094e-14,5.93968899 5.93968899,-4.8316906e-13 13.2666667,-4.8316906e-13 C20.5936443,-4.8316906e-13 26.5333333,5.93968899 26.5333333,13.2666667 C26.5333333,14.3105585 26.4125695,15.3394471 26.1756865,16.3384079 Z M4.95941956,9.9410195 C5.11612732,9.70757476 5.61595815,8.9485813 5.7180095,8.79698333 C5.98471267,8.40079394 6.18406879,8.12838767 6.3902657,7.88936506 C7.04526504,7.13009253 7.7568996,6.76323117 8.85012201,6.62846907 C11.036816,6.35891415 12.0060894,8.77251449 12.9266229,13.313137 C12.974584,13.54971 13.0316502,13.812827 13.1117567,14.1700571 C13.1347929,14.2727858 13.2850254,14.9371822 13.3298488,15.1379816 C13.4218188,15.549988 13.4950595,15.8899851 13.5615605,16.2180661 C14.0774843,18.7633609 14.1396389,20.2867494 13.4061665,21.2749777 C11.966306,23.2149431 9.5228185,22.0012746 8.10631798,19.5464278 C7.72932008,18.8930768 7.12546264,18.2136088 6.28290789,17.4507199 C5.90676662,17.1101438 4.35090881,15.8144298 4.06645462,15.5359678 C2.7409255,14.2383615 3.2155106,12.5388896 4.95941956,9.9410195 Z M6.61997282,11.0557225 C5.39241899,12.8843876 5.14004101,13.788144 5.46553483,14.1067811 C5.68043804,14.3171573 7.1940919,15.5777239 7.62529321,15.968154 C8.60868939,16.8585674 9.33787892,17.6790606 9.83861499,18.5468544 C10.2684666,19.2918028 10.8174589,19.8603945 11.2925422,20.0963661 C11.5929622,20.2455832 11.6903013,20.2310442 11.800181,20.0830002 C12.038301,19.7621742 11.9876545,18.5208451 11.6014224,16.6153804 C11.5378965,16.3019771 11.4672425,15.9739878 11.37789,15.5737072 C11.3338088,15.3762327 11.1838684,14.713128 11.1602214,14.6076758 C11.0773687,14.2381991 11.0177221,13.9631847 10.9664984,13.7105187 C10.3605774,10.721753 9.49413733,8.56421929 9.09481097,8.61344446 C8.48429814,8.6887027 8.22814624,8.82075395 7.90463767,9.19576375 C7.76156172,9.36161681 7.60305014,9.57821185 7.37711275,9.91384338 C7.28238036,10.054569 6.78350478,10.8121119 6.61997282,11.0557225 Z M16.0056505,4.08036119 C17.0835857,4.08036119 18.9167536,4.63375586 21.5618375,7.83994765 C24.2069214,11.0461394 23.6170786,12.8155264 22.4966872,13.7231849 C21.3762959,14.6308433 18.4434628,14.5923993 18.4434628,11.7910006 C18.4434628,8.98960195 14.9803782,9.96818318 14.2717998,7.4075657 C13.5632215,4.84694821 14.9277152,4.08036119 16.0056505,4.08036119 Z M17.187881,6.48513344 C16.700444,6.2006287 16.3416838,6.09225977 16.0545587,6.08130045 C16.0553646,6.20146054 16.0816343,6.44873937 16.1993597,6.87416813 C16.263867,7.1072807 16.398341,7.21923021 17.1101892,7.53707612 C17.2201312,7.58593752 17.2201312,7.58593752 17.3383888,7.63819069 C19.4111912,8.55565013 20.4434628,9.56039045 20.4434628,11.7910006 C20.4434628,12.2852501 20.9262982,12.4214484 21.2377253,12.1691531 C21.4043924,12.0341317 21.4525454,11.9376659 21.443345,11.7335917 C21.4185806,11.1842915 21.0002268,10.3019801 20.0190852,9.1127066 C18.9386527,7.80307946 17.9928423,6.95496921 17.187881,6.48513344 Z M20.5706956,22.4666667 L25.1626377,22.4666667 L25.5440481,20.3333333 L20.1892853,20.3333333 L20.5706956,22.4666667 Z M20.7333333,27.4 C19.9969537,27.4 19.4,26.8030463 19.4,26.0666667 C19.4,25.330287 19.9969537,24.7333333 20.7333333,24.7333333 C21.469713,24.7333333 22.0666667,25.330287 22.0666667,26.0666667 C22.0666667,26.8030463 21.469713,27.4 20.7333333,27.4 Z M25,27.4 C24.2636203,27.4 23.6666667,26.8030463 23.6666667,26.0666667 C23.6666667,25.330287 24.2636203,24.7333333 25,24.7333333 C25.7363797,24.7333333 26.3333333,25.330287 26.3333333,26.0666667 C26.3333333,26.8030463 25.7363797,27.4 25,27.4 Z" id="Combined-Shape"></path>
                            </g>
                        </g>
                    </g>
                </g>
            </g>
        </g>
    </g>
</svg>